<svg viewBox="0 0 107 32" fill="none" xmlns="http://www.w3.org/2000/svg">
<g clip-path="url(#clip0_591_154)">
<path fill-rule="evenodd" clip-rule="evenodd" d="M65.8015 25.0124C59.6378 29.5502 50.7039 31.9713 43.012 31.9713C32.2267 31.9713 22.5171 27.9869 15.1715 21.3601C14.5943 20.839 15.1114 20.1288 15.804 20.5346C23.7314 25.1416 33.5333 27.9131 43.6584 27.9131C50.4869 27.9131 57.9988 26.502 64.9058 23.5736C65.9493 23.1309 66.8219 24.2561 65.8015 25.0124Z" fill="white"/>
<path fill-rule="evenodd" clip-rule="evenodd" d="M68.364 22.0841C67.5791 21.0788 63.156 21.6091 61.1707 21.8443C60.5659 21.9181 60.4736 21.3924 61.0184 21.0142C64.5411 18.5378 70.3216 19.2526 70.9957 20.0827C71.6698 20.9174 70.8203 26.7049 67.5099 29.4672C67.002 29.8915 66.5172 29.6655 66.7435 29.1029C67.4868 27.2491 69.1535 23.094 68.364 22.0841Z" fill="white"/>
<path fill-rule="evenodd" clip-rule="evenodd" d="M61.3092 3.5317V1.12445C61.3092 0.760138 61.5862 0.515724 61.9186 0.515724H72.7086C73.0549 0.515724 73.3319 0.76475 73.3319 1.12445V3.18583C73.3273 3.5317 73.0364 3.98363 72.5193 4.69843L66.9281 12.6719C69.0057 12.6211 71.1988 12.9301 73.0826 13.9908C73.5073 14.2306 73.6227 14.581 73.6551 14.9269V17.4956C73.6551 17.8461 73.2672 18.2565 72.8609 18.0443C69.5413 16.3058 65.1321 16.1167 61.4615 18.0628C61.0876 18.2657 60.6951 17.8599 60.6951 17.5094V15.0699C60.6951 14.6779 60.6997 14.0092 61.0922 13.4143L67.5698 4.13582H61.9325C61.5862 4.13582 61.3092 3.8914 61.3092 3.5317Z" fill="white"/>
<path fill-rule="evenodd" clip-rule="evenodd" d="M21.9493 18.5516H18.6666C18.3526 18.5286 18.1033 18.2934 18.0802 17.9936V1.16596C18.0802 0.829315 18.3618 0.561842 18.7127 0.561842H21.7738C22.0924 0.575667 22.3463 0.820089 22.3694 1.12445V3.32418H22.4294C23.2282 1.19824 24.7287 0.206749 26.7509 0.206749C28.8055 0.206749 30.089 1.19824 31.0124 3.32418C31.8066 1.19824 33.6118 0.206749 35.5463 0.206749C36.9222 0.206749 38.4273 0.773973 39.3461 2.04677C40.385 3.46253 40.1726 5.51929 40.1726 7.32242L40.168 17.9429C40.168 18.2795 39.8863 18.5516 39.5354 18.5516H36.2574C35.9295 18.5286 35.6664 18.2657 35.6664 17.9429V9.02409C35.6664 8.31391 35.731 6.54306 35.574 5.86977C35.3293 4.73994 34.5952 4.42173 33.6441 4.42173C32.85 4.42173 32.0189 4.95207 31.6819 5.8006C31.3449 6.64913 31.3772 8.06949 31.3772 9.02409V17.9429C31.3772 18.2795 31.0955 18.5516 30.7446 18.5516H27.4666C27.1342 18.5286 26.8756 18.2657 26.8756 17.9429L26.871 9.02409C26.871 7.14718 27.1803 4.38484 24.8487 4.38484C22.4894 4.38484 22.5818 7.078 22.5818 9.02409V17.9429C22.5818 18.2795 22.3001 18.5516 21.9493 18.5516" fill="white"/>
<path fill-rule="evenodd" clip-rule="evenodd" d="M82.6213 0.206749C87.4923 0.206749 90.1286 4.38484 90.1286 9.69739C90.1286 14.8301 87.2153 18.9021 82.6213 18.9021C77.8381 18.9021 75.2341 14.724 75.2341 9.51753C75.2341 4.27878 77.8704 0.206749 82.6213 0.206749ZM82.649 3.64238C80.2297 3.64238 80.0774 6.93505 80.0774 8.9872C80.0774 11.044 80.045 15.4342 82.6213 15.4342C85.1653 15.4342 85.2854 11.8925 85.2854 9.73428C85.2854 8.31391 85.2253 6.61685 84.7959 5.27027C84.4266 4.09893 83.6925 3.64238 82.649 3.64238Z" fill="white"/>
<path fill-rule="evenodd" clip-rule="evenodd" d="M96.4446 18.5516H93.1758C92.848 18.5286 92.5848 18.2657 92.5848 17.9429L92.5802 1.11062C92.6079 0.801643 92.8803 0.561842 93.2127 0.561842H96.2553C96.5416 0.575667 96.7771 0.769363 96.8417 1.03222V3.60548H96.9017C97.8205 1.30431 99.1086 0.206749 101.376 0.206749C102.848 0.206749 104.284 0.737082 105.208 2.18973C106.066 3.53631 106.066 5.8006 106.066 7.42848V18.0213C106.03 18.3164 105.757 18.5516 105.434 18.5516H102.142C101.842 18.5286 101.593 18.3072 101.56 18.0213V8.88113C101.56 7.04111 101.773 4.34795 99.5057 4.34795C98.707 4.34795 97.9729 4.88289 97.6081 5.69453C97.1464 6.72292 97.0864 7.74669 97.0864 8.88113V17.9429C97.0818 18.2795 96.7955 18.5516 96.4446 18.5516" fill="white"/>
<path fill-rule="evenodd" clip-rule="evenodd" d="M52.7077 10.5136C52.7077 11.791 52.74 12.8563 52.0937 13.9908C51.5719 14.9131 50.7409 15.4803 49.8221 15.4803C48.5617 15.4803 47.8229 14.5211 47.8229 13.1053C47.8229 10.3107 50.33 9.80345 52.7077 9.80345V10.5136ZM56.0181 18.5055C55.8011 18.6992 55.4872 18.713 55.2425 18.5839C54.1528 17.68 53.9543 17.2604 53.3587 16.398C51.5581 18.2334 50.2792 18.7822 47.9476 18.7822C45.182 18.7822 43.0351 17.0805 43.0351 13.6726C43.0351 11.0117 44.4756 9.19933 46.5348 8.31391C48.3169 7.52994 50.8055 7.39159 52.7077 7.17485V6.75058C52.7077 5.97122 52.7677 5.04891 52.306 4.37562C51.909 3.7715 51.1426 3.52247 50.4639 3.52247C49.2126 3.52247 48.1 4.16348 47.8275 5.49162C47.7721 5.78676 47.5551 6.07729 47.255 6.09113L44.0739 5.74987C43.8061 5.68992 43.506 5.47317 43.5845 5.06275C44.314 1.20746 47.8045 0.0453415 50.9256 0.0453415C52.523 0.0453415 54.6099 0.469608 55.8704 1.67784C57.4679 3.16738 57.3155 5.15497 57.3155 7.31781V12.4274C57.3155 13.9631 57.9526 14.6364 58.5528 15.4665C58.7606 15.7616 58.8068 16.1167 58.539 16.3381C57.8695 16.8961 56.6783 17.9337 56.0227 18.5147L56.0181 18.5055" fill="white"/>
<path fill-rule="evenodd" clip-rule="evenodd" d="M9.67263 10.5138C9.67263 11.7912 9.70494 12.8565 9.05857 13.991C8.53684 14.9133 7.7104 15.4805 6.787 15.4805C5.52655 15.4805 4.79245 14.5213 4.79245 13.1055C4.79245 10.3109 7.29948 9.80364 9.67263 9.80364V10.5138ZM12.983 18.5057C12.766 18.6994 12.4521 18.7132 12.2074 18.5841C11.1177 17.6802 10.9238 17.2606 10.3236 16.3982C8.52299 18.2336 7.2487 18.7824 4.91249 18.7824C2.15152 18.7824 0 17.0807 0 13.6728C0 11.0119 1.44512 9.19953 3.49969 8.3141C5.28185 7.53013 7.77042 7.39179 9.67263 7.17504V6.75078C9.67263 5.97142 9.73265 5.0491 9.27556 4.37581C8.87388 3.77169 8.10746 3.52267 7.43338 3.52267C6.18217 3.52267 5.06485 4.16368 4.79245 5.49181C4.73705 5.78696 4.52005 6.07749 4.22456 6.09132L1.03883 5.75006C0.771039 5.69011 0.475551 5.47337 0.549423 5.06294C1.28353 1.20766 4.76936 0.045536 7.89046 0.045536C9.48794 0.045536 11.5748 0.469802 12.8353 1.67804C14.4328 3.16758 14.2804 5.15517 14.2804 7.318V12.4276C14.2804 13.9633 14.9175 14.6366 15.5178 15.4667C15.7301 15.7618 15.7763 16.1169 15.5085 16.3383C14.8391 16.8963 13.6479 17.9339 12.9922 18.5149L12.983 18.5057" fill="white"/>
</g>
<defs>
<clipPath id="clip0_591_154">
<rect width="106.066" height="31.926" fill="white" transform="translate(0 0.0453186)"/>
</clipPath>
</defs>
</svg>
