<svg width="82" height="47" viewBox="0 0 82 47" fill="none" xmlns="http://www.w3.org/2000/svg">
<g clip-path="url(#clip0_591_155)">
<path d="M65.658 34.1129H82V47H65.5613L61.5 43.2097V37.9032L65.658 34.1129Z" fill="white"/>
<path d="M14.6981 10.1391L14.9882 10.0444C15.1816 9.9496 15.4717 9.76008 15.7618 9.57057C16.0519 9.38105 16.342 9.09678 16.6321 8.8125C16.9222 8.52823 17.1156 8.14919 17.4057 7.58065C17.5991 7.10686 17.6958 6.53831 17.6958 5.96976C17.6958 4.54839 17.0189 3.22178 15.6651 2.17944C14.3113 1.1371 12.4741 0.56855 10.1533 0.56855H0V20.8468H10.7335C13.441 20.8468 19.1462 20.373 19.1462 15.0665C19.1462 10.9919 14.7948 10.1391 14.6981 10.1391ZM6.67217 5.30645H9.18632C9.66981 5.30645 10.0566 5.40121 10.4434 5.78024C10.7335 6.06452 10.9269 6.44355 10.9269 6.82258C10.9269 7.20161 10.7335 7.58065 10.4434 7.86492C10.0566 8.14919 9.66981 8.33871 9.18632 8.33871H6.67217V5.30645ZM11.3137 15.6351C10.9269 16.0141 10.4434 16.2036 9.86321 16.2036H6.67217V12.6028H9.86321C10.4434 12.6028 10.9269 12.7923 11.3137 13.1714C11.7005 13.5504 11.8939 13.9294 11.8939 14.498C11.8939 14.877 11.7005 15.256 11.3137 15.6351Z" fill="white"/>
<path d="M20.0165 32.5968L20.3066 32.502C20.5 32.4073 20.7901 32.2177 21.0802 32.0282C21.3703 31.8387 21.6604 31.5544 21.9505 31.2702C22.2406 30.9859 22.434 30.6069 22.7241 30.0383C22.9175 29.5645 23.0142 28.996 23.0142 28.4274C23.0142 27.0061 22.3373 25.6794 20.9835 24.6371C19.6297 23.5948 17.7925 23.0262 15.4717 23.0262H5.31842V43.3044H15.9552C18.6628 43.3044 24.3679 42.8306 24.3679 37.5242C24.4646 33.4496 20.1132 32.6915 20.0165 32.5968ZM12.0873 27.7641H14.5047C14.9882 27.7641 15.375 27.9536 15.7618 28.2379C16.0519 28.5222 16.2453 28.9012 16.2453 29.2802C16.2453 29.6593 16.0519 30.0383 15.7618 30.3226C15.4717 30.6069 15.0849 30.7964 14.5047 30.7964H12.0873V27.7641ZM16.6321 38.0927C16.2453 38.4718 15.7618 38.6613 15.1816 38.6613H12.0873V35.0605H15.1816C15.7618 35.0605 16.2453 35.25 16.6321 35.629C17.0189 36.0081 17.2123 36.3871 17.2123 36.9556C17.2123 37.3347 17.0189 37.7137 16.6321 38.0927Z" fill="white"/>
<path d="M36.2618 15.9194H26.3019V12.7923H34.4245V8.14919H26.3019V5.49597H36.2618V0.56855H19.533V20.8468H36.2618V15.9194Z" fill="white"/>
<path d="M53.3774 0.56855V5.49597H58.8892V20.8468H65.5613V5.49597H70.9764V0.56855H53.3774Z" fill="white"/>
<path d="M45.8349 15.6351C45.4481 15.9194 44.9646 16.1089 44.2877 16.1089C43.6109 16.1089 42.934 15.9194 42.2571 15.5403C41.5802 15.1613 41.0967 14.877 40.8066 14.6875C40.7099 14.5927 40.5165 14.498 40.4198 14.4032L36.4552 18.0988L36.7453 18.3831C36.9387 18.6673 37.3255 18.9516 37.809 19.2359C38.2925 19.6149 38.8727 19.8992 39.5495 20.2782C40.2264 20.6573 41 20.9415 42.0637 21.131C43.0307 21.4153 44.0944 21.5101 45.158 21.5101C47.7689 21.5101 49.8962 20.8468 51.4434 19.5202C52.9906 18.1936 53.7642 16.5827 53.7642 14.6875C53.7642 13.6452 53.5708 12.6028 53.0873 11.8448C52.6038 10.9919 52.1203 10.4234 51.4434 9.9496C50.7665 9.57057 50.0896 9.19153 49.316 8.8125C48.6392 8.52823 47.9623 8.24395 47.2854 8.14919C47.1887 8.14919 47.1887 8.14919 47.092 8.14919C46.4151 7.95968 45.8349 7.77016 45.4481 7.48589C44.9646 7.20161 44.7712 7.0121 44.7712 6.63306C44.7712 6.25403 44.9646 5.96976 45.2547 5.68548C45.5448 5.40121 46.0283 5.30645 46.6085 5.30645C47.9623 5.30645 48.8326 5.875 49.2194 6.34879L53.184 2.65323L53.0873 2.55847C52.8939 2.36895 52.6038 2.08468 52.217 1.8004C51.8302 1.51613 51.3467 1.23185 50.7665 0.947581C50.1863 0.663306 49.5094 0.379032 48.5425 0.189516C47.5755 0.0947581 46.6085 0 45.6415 0C43.1274 0 41.1934 0.663307 39.6462 1.89516C38.0991 3.22177 37.3255 4.7379 37.3255 6.44355C37.3255 7.39113 37.5189 8.24395 37.809 8.90726C38.0991 9.66532 38.5826 10.2339 39.0661 10.7077C39.5495 11.1815 40.1297 11.5605 40.8066 11.8448C41.3868 12.129 41.8703 12.3185 42.4505 12.5081C42.5472 12.5081 42.6439 12.6028 42.7406 12.6028C43.4175 12.7923 43.9977 12.9819 44.4811 13.1714C44.9646 13.3609 45.4481 13.5504 45.7382 13.7399C46.0283 13.9294 46.2217 14.2137 46.2217 14.4032C46.4151 14.9718 46.2217 15.3508 45.8349 15.6351Z" fill="white"/>
<path d="M36.2618 35.0605C36.2618 36.3871 35.1981 37.5242 33.7477 37.5242C32.3939 37.5242 31.2335 36.4819 31.2335 35.0605V23.0262H24.5613V34.7762C24.5613 39.6089 28.526 43.5887 33.5543 43.5887H33.9411C38.8727 43.5887 42.934 39.7036 42.934 34.7762V23.0262H36.2618V35.0605Z" fill="white"/>
<path d="M54.3443 29.9436L49.9929 23.0262H43.3207L51.0566 36.1028V43.3044H57.7288V36.1028L65.4646 23.0262H58.7924L54.3443 29.9436Z" fill="white"/>
<path d="M64.7877 40.5564C64.7877 41.0302 64.4009 41.3145 64.0141 41.3145C63.6273 41.3145 63.2405 40.9355 63.2405 40.5564C63.2405 40.0827 63.6273 39.7984 64.0141 39.7984C64.4009 39.7984 64.7877 40.0827 64.7877 40.5564Z" fill="white"/>
<path d="M65.658 28.9012H65.1745V28.7117H66.3349V28.9012H65.8514V30.3226H65.658V28.9012ZM66.625 28.7117H66.9151L67.3986 29.9435L67.882 28.7117H68.1721V30.2278H67.9787V28.9012L67.3986 30.2278H67.3019L66.7217 28.9012V30.2278H66.5283V28.7117H66.625Z" fill="white"/>
</g>
<defs>
<clipPath id="clip0_591_155">
<rect width="82" height="47" fill="white"/>
</clipPath>
</defs>
</svg>
