<svg width="29" height="29" viewBox="0 0 29 29" fill="none" xmlns="http://www.w3.org/2000/svg">
<circle cx="14.5" cy="14.5" r="14.5" fill="black"/>
<path d="M17.8883 18.1981C18.5283 18.1981 18.8483 18.4701 18.8483 19.0141C18.8483 19.5794 18.5283 19.8621 17.8883 19.8621H12.4803C11.8297 19.8621 11.5043 19.5794 11.5043 19.0141C11.5043 18.4701 11.8297 18.1981 12.4803 18.1981H14.1443V10.9021L12.6083 11.8461C12.459 11.9314 12.3257 11.9741 12.2083 11.9741C11.9843 11.9741 11.7923 11.8781 11.6323 11.6861C11.483 11.4941 11.4083 11.2808 11.4083 11.0461C11.4083 10.7368 11.547 10.4968 11.8243 10.3261L14.3043 8.79009C14.6243 8.59809 14.9283 8.50209 15.2163 8.50209C15.515 8.50209 15.755 8.59276 15.9363 8.77409C16.1177 8.95542 16.2083 9.20609 16.2083 9.52609V18.1981H17.8883Z" fill="white"/>
</svg>
