<svg width="150" height="43" viewBox="0 0 150 43" fill="none" xmlns="http://www.w3.org/2000/svg">
<g clip-path="url(#clip0_591_167)">
<path d="M51.8934 23.9114C50.6162 23.2031 49.944 22.6298 49.944 21.8204C49.944 20.7749 50.8515 20.1341 52.2967 20.1341C53.9772 20.1341 55.456 20.8424 55.456 20.8424L56.6323 17.2337C56.6323 17.2337 55.5568 16.3906 52.3639 16.3906C47.9274 16.3906 44.8353 18.9537 44.8353 22.5286C44.8353 24.5522 46.2805 26.1035 48.1963 27.2165C49.7423 28.0933 50.2801 28.7341 50.2801 29.6447C50.2801 30.6227 49.5071 31.3984 48.0619 31.3984C45.9108 31.3984 43.8943 30.2855 43.8943 30.2855L42.6507 33.8941C42.6507 33.8941 44.5328 35.142 47.6585 35.142C52.2295 35.142 55.4896 32.8824 55.4896 28.8353C55.5568 26.6094 53.8763 25.058 51.8934 23.9114Z" fill="white"/>
<path d="M70.1098 16.3231C67.8579 16.3231 66.1102 17.4024 64.7322 19.0212L64.665 18.9874L66.6144 8.7349H61.5057L56.5651 34.8047H61.6402L63.3206 25.9012C63.9928 22.5286 65.7069 20.4714 67.3202 20.4714C68.4629 20.4714 68.8998 21.2471 68.8998 22.36C68.8998 23.0682 68.8326 23.9114 68.6646 24.6196L66.7488 34.8384H71.8239L73.8069 24.3161C74.0421 23.2031 74.1766 21.8878 74.1766 20.9773C74.2438 18.0431 72.765 16.3231 70.1098 16.3231Z" fill="white"/>
<path d="M85.7383 16.3231C79.6213 16.3231 75.5546 21.8541 75.5546 28.0259C75.5546 31.9718 77.9745 35.1757 82.5454 35.1757C88.5615 35.1757 92.5947 29.7796 92.5947 23.4729C92.6283 19.7969 90.5109 16.3231 85.7383 16.3231ZM83.2512 31.2298C81.5035 31.2298 80.7977 29.7459 80.7977 27.891C80.7977 24.9569 82.3101 20.2016 85.0661 20.2016C86.881 20.2016 87.4524 21.7529 87.4524 23.2706C87.4524 26.4408 85.94 31.2298 83.2512 31.2298Z" fill="white"/>
<path d="M105.635 16.3231C102.207 16.3231 100.258 19.3584 100.258 19.3584H100.19L100.493 16.6267H95.9893C95.754 18.4816 95.3507 21.2808 94.9474 23.4055L91.4183 42.022H96.4934L97.905 34.4675H98.0058C98.0058 34.4675 99.0477 35.142 100.997 35.142C106.98 35.142 110.878 29.0039 110.878 22.7984C110.878 19.3922 109.366 16.3231 105.635 16.3231ZM100.795 31.331C99.4847 31.331 98.7116 30.589 98.7116 30.589L99.5519 25.8337C100.157 22.6635 101.804 20.5388 103.551 20.5388C105.097 20.5388 105.568 21.989 105.568 23.338C105.568 26.6094 103.619 31.331 100.795 31.331Z" fill="white"/>
<path d="M118.138 9.00471C116.525 9.00471 115.214 10.2863 115.214 11.9726C115.214 13.4902 116.155 14.5357 117.6 14.5357H117.668C119.247 14.5357 120.625 13.4565 120.659 11.5678C120.692 10.0502 119.684 9.00471 118.138 9.00471Z" fill="white"/>
<path d="M111.013 34.8047H116.121L119.583 16.7278H114.441L111.013 34.8047Z" fill="white"/>
<path d="M132.489 16.6941H128.96L129.128 15.851C129.431 14.0973 130.439 12.5459 132.153 12.5459C133.061 12.5459 133.767 12.8157 133.767 12.8157L134.775 8.83608C134.775 8.83608 133.901 8.39765 132.019 8.39765C130.204 8.39765 128.423 8.90353 127.045 10.0839C125.297 11.5678 124.49 13.6925 124.087 15.851L123.953 16.6941H121.6L120.86 20.5388H123.213L120.524 34.8047H125.599L128.288 20.5388H131.784L132.489 16.6941Z" fill="white"/>
<path d="M144.723 16.7278C144.723 16.7278 141.53 24.7545 140.119 29.1388H140.052C139.951 27.7224 138.808 16.7278 138.808 16.7278H133.464L136.523 33.3208C136.59 33.6918 136.556 33.9278 136.422 34.1639C135.817 35.3106 134.842 36.4235 133.666 37.2329C132.725 37.9412 131.649 38.3796 130.809 38.6831L132.22 43C133.262 42.7639 135.38 41.9208 137.195 40.2345C139.514 38.0424 141.665 34.7035 143.849 30.1169L150.067 16.7278H144.723Z" fill="white"/>
<path d="M25.14 4.99137C25.14 4.99137 24.6695 5.12628 23.8965 5.36235C23.762 4.92392 23.5604 4.41804 23.2915 3.87843C22.4177 2.19216 21.1069 1.28157 19.5608 1.28157C19.46 1.28157 19.3592 1.28157 19.2247 1.31529C19.1911 1.24784 19.1239 1.21412 19.0903 1.14667C18.4181 0.404707 17.5443 0.0674516 16.5024 0.101177C14.4858 0.168628 12.4692 1.61882 10.8559 4.21569C9.7132 6.03686 8.83935 8.3302 8.60408 10.1176C6.28501 10.8259 4.67175 11.3318 4.63814 11.3655C3.4618 11.7365 3.42819 11.7702 3.29375 12.8831C3.19292 13.7263 0.10083 37.469 0.10083 37.469L25.5097 41.8871V4.95765C25.3081 4.95765 25.2073 4.99137 25.14 4.99137ZM19.2583 6.81255C17.914 7.21726 16.4351 7.68941 14.9899 8.12784C15.3932 6.54275 16.1999 4.95765 17.1409 3.91216C17.5106 3.54118 18.0148 3.10275 18.5862 2.83294C19.1575 4.04706 19.292 5.69961 19.2583 6.81255ZM16.5024 1.48392C16.9729 1.48392 17.3762 1.5851 17.7123 1.78745C17.1745 2.05726 16.6368 2.49569 16.1326 3.00157C14.8555 4.38431 13.8808 6.54275 13.4775 8.6C12.2675 8.97098 11.0576 9.34196 9.94847 9.67922C10.6879 6.44157 13.4103 1.55137 16.5024 1.48392ZM12.6036 20.0329C12.7381 22.1914 18.4181 22.6635 18.7542 27.7561C18.9895 31.7694 16.6368 34.5012 13.2422 34.7035C9.14184 34.9733 6.88999 32.5451 6.88999 32.5451L7.76384 28.8353C7.76384 28.8353 10.0157 30.5553 11.8306 30.4204C13.0069 30.3529 13.4439 29.3749 13.4103 28.7004C13.2422 25.8675 8.60408 26.0361 8.30159 21.382C8.03272 17.4698 10.5871 13.5239 16.2335 13.1529C18.4181 13.018 19.5272 13.5576 19.5272 13.5576L18.2501 18.4141C18.2501 18.4141 16.8048 17.7396 15.0907 17.8745C12.6036 18.0431 12.57 19.6282 12.6036 20.0329ZM20.6027 6.40784C20.6027 5.39608 20.4683 3.94588 19.9978 2.73177C21.5438 3.0353 22.2832 4.75529 22.6193 5.80079C22.0143 5.96941 21.3421 6.17177 20.6027 6.40784Z" fill="white"/>
<path d="M26.2828 41.8196L36.8362 39.189C36.8362 39.189 32.2989 8.39765 32.2653 8.1953C32.2317 7.99294 32.0636 7.85804 31.8956 7.85804C31.7275 7.85804 28.7699 7.79059 28.7699 7.79059C28.7699 7.79059 26.955 6.03686 26.2828 5.36235V41.8196Z" fill="white"/>
</g>
<defs>
<clipPath id="clip0_591_167">
<rect width="150" height="43" fill="white"/>
</clipPath>
</defs>
</svg>
