<svg width="30" height="30" viewBox="0 0 30 30" fill="none" xmlns="http://www.w3.org/2000/svg">
<g clip-path="url(#clip0_591_261)">
<path d="M23.7393 13.3235C18.977 10.4953 11.1218 10.2353 6.57562 11.615C5.84555 11.8366 5.07351 11.4243 4.85237 10.6945C4.63108 9.96393 5.04277 9.19245 5.7734 8.97051C10.9921 7.38645 19.6674 7.69236 25.1497 10.9468C25.8064 11.3366 26.0218 12.1847 25.6326 12.8402C25.2431 13.4968 24.3943 13.7133 23.7393 13.3235ZM23.5833 17.5124C23.2492 18.0545 22.5403 18.2246 21.9989 17.8917C18.0286 15.4511 11.9745 14.7442 7.27736 16.17C6.66824 16.3541 6.02486 16.0106 5.83983 15.4026C5.65631 14.7935 5.99992 14.1513 6.60794 13.9661C11.9738 12.3378 18.6443 13.1265 23.2044 15.9288C23.7458 16.2623 23.9162 16.9715 23.5833 17.5124ZM21.7756 21.5352C21.5101 21.9707 20.9432 22.107 20.5094 21.8417C17.0401 19.7213 12.6734 19.2425 7.53076 20.4171C7.03519 20.5307 6.54129 20.2202 6.42828 19.7246C6.31477 19.2293 6.62414 18.7353 7.12079 18.6222C12.7485 17.3357 17.5759 17.8894 21.47 20.2689C21.9042 20.5341 22.0409 21.1012 21.7756 21.5352ZM15.0001 0.226143C6.8408 0.226143 0.226196 6.84061 0.226196 14.9998C0.226196 23.1599 6.8408 29.7738 15.0001 29.7738C23.1596 29.7738 29.7739 23.1599 29.7739 14.9998C29.7739 6.84061 23.1596 0.226143 15.0001 0.226143Z" fill="black"/>
</g>
<defs>
<clipPath id="clip0_591_261">
<rect width="30" height="30" fill="white"/>
</clipPath>
</defs>
</svg>
