<svg width="29" height="29" viewBox="0 0 29 29" fill="none" xmlns="http://www.w3.org/2000/svg">
<circle cx="14.5" cy="14.5" r="14.5" fill="black"/>
<path d="M16.4003 14.0701C17.0723 14.2408 17.5843 14.5661 17.9363 15.0461C18.299 15.5154 18.4803 16.1021 18.4803 16.8061C18.4803 17.7768 18.123 18.5501 17.4083 19.1261C16.6937 19.7021 15.7283 19.9901 14.5123 19.9901C13.819 19.9901 13.1523 19.8834 12.5123 19.6701C11.8723 19.4568 11.3283 19.1581 10.8803 18.7741C10.635 18.5608 10.5123 18.3101 10.5123 18.0221C10.5123 17.7874 10.5763 17.5901 10.7043 17.4301C10.843 17.2594 11.003 17.1741 11.1843 17.1741C11.291 17.1741 11.387 17.1954 11.4723 17.2381C11.5577 17.2701 11.675 17.3288 11.8243 17.4141C12.2723 17.7128 12.699 17.9421 13.1043 18.1021C13.5097 18.2621 13.9523 18.3421 14.4323 18.3421C15.1363 18.3421 15.659 18.2034 16.0003 17.9261C16.3417 17.6381 16.5123 17.2061 16.5123 16.6301C16.5123 16.0648 16.331 15.6488 15.9683 15.3821C15.6163 15.1048 15.067 14.9661 14.3203 14.9661H13.4083C13.163 14.9661 12.971 14.8861 12.8323 14.7261C12.7043 14.5554 12.6403 14.3634 12.6403 14.1501C12.6403 13.9261 12.7043 13.7341 12.8323 13.5741C12.971 13.4141 13.163 13.3341 13.4083 13.3341H14.0483C15.5097 13.3341 16.2403 12.7848 16.2403 11.6861C16.2403 11.1741 16.0857 10.7794 15.7763 10.5021C15.467 10.2248 15.0403 10.0861 14.4963 10.0861C13.7177 10.0861 12.8857 10.3954 12.0003 11.0141C11.851 11.0994 11.7337 11.1634 11.6483 11.2061C11.563 11.2381 11.467 11.2541 11.3603 11.2541C11.179 11.2541 11.019 11.1741 10.8803 11.0141C10.7523 10.8434 10.6883 10.6408 10.6883 10.4061C10.6883 10.2461 10.715 10.1128 10.7683 10.0061C10.8323 9.88876 10.9283 9.77142 11.0563 9.65409C11.5043 9.28076 12.0377 8.98742 12.6563 8.77409C13.2857 8.55009 13.9257 8.43809 14.5763 8.43809C15.6857 8.43809 16.5657 8.71009 17.2163 9.25409C17.8777 9.79809 18.2083 10.5234 18.2083 11.4301C18.1977 12.0488 18.0323 12.5928 17.7123 13.0621C17.403 13.5208 16.9657 13.8568 16.4003 14.0701Z" fill="white"/>
</svg>