<svg width="29" height="29" viewBox="0 0 29 29" fill="none" xmlns="http://www.w3.org/2000/svg">
<circle cx="14.5" cy="14.5" r="14.5" fill="black"/>
<path d="M17.8403 18.1981C18.4803 18.1981 18.8003 18.4701 18.8003 19.0141C18.8003 19.5794 18.4803 19.8621 17.8403 19.8621H11.7603C11.483 19.8621 11.2643 19.7821 11.1043 19.6221C10.9443 19.4514 10.8643 19.2434 10.8643 18.9981C10.8643 18.6781 10.987 18.3901 11.2323 18.1341L14.8803 14.2141C15.3283 13.7234 15.6537 13.2754 15.8563 12.8701C16.0697 12.4541 16.1763 12.0434 16.1763 11.6381C16.1763 11.1368 16.0323 10.7528 15.7443 10.4861C15.4563 10.2194 15.0457 10.0861 14.5123 10.0861C14.075 10.0861 13.6483 10.1714 13.2323 10.3421C12.827 10.5021 12.4163 10.7261 12.0003 11.0141C11.8937 11.0888 11.787 11.1528 11.6803 11.2061C11.5737 11.2488 11.467 11.2701 11.3603 11.2701C11.179 11.2701 11.019 11.1848 10.8803 11.0141C10.7523 10.8434 10.6883 10.6408 10.6883 10.4061C10.6883 10.2461 10.715 10.1074 10.7683 9.99009C10.8323 9.87276 10.9283 9.76076 11.0563 9.65409C11.5257 9.28076 12.075 8.98742 12.7043 8.77409C13.3337 8.55009 13.963 8.43809 14.5923 8.43809C15.691 8.43809 16.5657 8.71542 17.2163 9.27009C17.8777 9.82476 18.2083 10.5714 18.2083 11.5101C18.2083 12.1608 18.0697 12.7741 17.7923 13.3501C17.515 13.9154 17.0457 14.5501 16.3843 15.2541L13.6163 18.1981H17.8403Z" fill="white"/>
</svg>
